<svg xmlns="http://www.w3.org/2000/svg" xmlns:xlink="http://www.w3.org/1999/xlink" width="500" zoomAndPan="magnify" viewBox="0 0 375 374.999991" height="500" preserveAspectRatio="xMidYMid meet" version="1.0"><defs><g/><clipPath id="f167fc8172"><path d="M 218.730469 84.367188 L 293.527344 84.367188 L 293.527344 236.453125 L 218.730469 236.453125 Z M 218.730469 84.367188 " clip-rule="nonzero"/></clipPath><clipPath id="fbe4cdd8e6"><path d="M 81.707031 84.367188 L 156.269531 84.367188 L 156.269531 236.453125 L 81.707031 236.453125 Z M 81.707031 84.367188 " clip-rule="nonzero"/></clipPath><clipPath id="627627be04"><path d="M 134 98.296875 L 242.804688 98.296875 L 242.804688 222.953125 L 134 222.953125 Z M 134 98.296875 " clip-rule="nonzero"/></clipPath></defs><g clip-path="url(#f167fc8172)"><path fill="#583526" d="M 276.550781 193.992188 C 274.636719 198.269531 272.339844 202.390625 269.671875 206.273438 C 271.359375 204.214844 274.148438 201.148438 277.589844 198.578125 C 283.414062 194.328125 289.554688 192.820312 289.644531 192.871094 C 289.71875 192.8125 287.027344 200.953125 280.542969 205.308594 C 274.695312 209.375 268.816406 208.6875 268.011719 208.605469 C 265.511719 211.992188 262.722656 215.171875 259.695312 218.132812 C 261.945312 216.464844 265.085938 214.363281 268.601562 212.695312 C 275.578125 209.496094 282.488281 209.300781 282.488281 209.316406 C 282.636719 209.308594 277.835938 217.175781 270.15625 220.398438 C 263.574219 223.171875 257.914062 221.519531 256.523438 221.0625 C 248.621094 227.980469 239.324219 233.34375 229.101562 236.460938 L 227.816406 232.910156 C 237.695312 230.132812 246.789062 225.109375 254.550781 218.535156 C 254.265625 216.761719 253.710938 211.609375 254.796875 206.40625 C 256.097656 200.019531 259.710938 195.308594 259.65625 195.195312 C 259.648438 195.1875 263.464844 200.445312 262.140625 207.453125 C 261.675781 210.054688 260.539062 212.320312 259.296875 214.160156 C 261.632812 211.8125 263.816406 209.316406 265.828125 206.691406 C 265.207031 205.179688 263.582031 200.507812 263.523438 195.421875 C 263.582031 189.320312 265.828125 184.175781 265.847656 184.113281 C 265.738281 184.070312 270.417969 188.28125 270.515625 194.949219 C 270.582031 197.710938 269.828125 200.273438 268.929688 202.332031 C 270.949219 199.28125 272.730469 196.078125 274.277344 192.765625 C 273.542969 191.71875 270.800781 187.613281 269.761719 182.761719 C 268.609375 177.152344 269.65625 171.917969 269.65625 171.871094 C 269.699219 171.878906 274.53125 174.847656 276.078125 180.964844 C 276.765625 183.925781 276.421875 186.867188 275.871094 189.109375 C 277.402344 185.304688 278.605469 181.371094 279.445312 177.355469 C 279.054688 177.003906 275.257812 173.636719 273.164062 168.984375 C 270.875 164.042969 270.941406 159.003906 270.90625 158.957031 C 270.777344 158.964844 276.070312 160.820312 278.480469 166.09375 C 280.109375 169.390625 280.109375 172.980469 279.871094 175.214844 C 280.527344 171.535156 280.886719 167.78125 280.910156 164.003906 C 282.195312 132.753906 260.898438 102.175781 230.53125 91.96875 C 229.78125 92.007812 227.253906 92.042969 224.546875 91.3125 C 221.25 90.636719 218.738281 88.976562 218.730469 88.976562 C 218.722656 88.976562 221.640625 88.425781 225.078125 89.128906 C 227.929688 89.890625 230.023438 91.402344 230.597656 91.835938 C 261.144531 101.445312 283.496094 131.8125 282.90625 163.871094 C 283.070312 173.882812 280.960938 183.777344 277.027344 192.9375 C 277.925781 190.988281 280.050781 186.671875 283.378906 182.941406 C 287.730469 177.921875 293.300781 175.484375 293.257812 175.484375 C 293.324219 175.417969 292.417969 183.269531 287.429688 188.503906 C 282.496094 193.65625 276.683594 193.984375 276.550781 193.992188 Z M 281.6875 177.863281 C 281.695312 177.863281 287.035156 176.417969 290.480469 170.75 C 293.890625 165.074219 293.265625 157.859375 293.210938 157.917969 C 293.078125 157.917969 288.828125 161.105469 285.636719 166.496094 C 282.683594 171.886719 281.726562 177.824219 281.6875 177.863281 Z M 269.558594 145.921875 C 269.46875 145.984375 270.546875 150.582031 273.460938 154.664062 C 276.558594 158.71875 280.8125 161.066406 280.902344 161.050781 C 280.910156 161.097656 281.105469 155.332031 277.761719 151.007812 C 274.382812 146.730469 269.507812 145.929688 269.558594 145.921875 Z M 283.117188 161.023438 C 283.027344 161.023438 287.699219 158.636719 289.613281 152.914062 C 291.679688 147.148438 289.621094 140.808594 289.703125 140.847656 C 289.652344 140.847656 286.121094 144.570312 284.460938 150 C 282.773438 155.429688 283.109375 160.984375 283.117188 161.023438 Z M 273.835938 136.382812 C 269.984375 133.144531 265.484375 133.292969 265.445312 133.308594 C 265.527344 133.308594 267.164062 137.40625 270.710938 140.488281 C 274.253906 143.589844 278.71875 144.773438 278.675781 144.78125 C 278.765625 144.808594 277.628906 139.648438 273.835938 136.382812 Z M 285 135.753906 C 285.621094 130.257812 282.808594 124.902344 282.75 124.976562 C 282.800781 124.949219 280.214844 128.949219 279.789062 134.136719 C 279.28125 139.34375 280.878906 144.226562 280.804688 144.277344 C 280.835938 144.269531 284.386719 141.25 285 135.753906 Z M 266.851562 122.867188 C 262.910156 120.617188 258.683594 121.6875 258.746094 121.628906 C 258.789062 121.640625 261.136719 124.992188 264.890625 127.117188 C 268.667969 129.226562 272.804688 129.433594 272.855469 129.417969 C 272.828125 129.464844 270.980469 125 266.851562 122.867188 Z M 274.792969 128.46875 C 274.753906 128.492188 277.328125 125.058594 276.835938 120.078125 C 276.339844 115.078125 272.8125 110.925781 272.789062 110.972656 C 272.714844 111.023438 271.390625 114.867188 271.855469 119.660156 C 272.527344 124.3125 274.734375 128.46875 274.792969 128.46875 Z M 257.175781 111 C 253.105469 109.902344 249.757812 111.351562 249.757812 111.351562 C 249.726562 111.425781 252.515625 113.953125 256.238281 115.160156 C 260.007812 116.347656 263.785156 115.628906 263.742188 115.660156 C 263.84375 115.621094 261.078125 112.273438 257.175781 111 Z M 265.402344 114.335938 C 265.4375 114.304688 266.933594 110.851562 265.542969 106.582031 C 264.210938 102.25 260.277344 99.320312 260.351562 99.289062 C 260.351562 99.289062 259.636719 103.148438 261.128906 107.113281 C 262.433594 111.246094 265.460938 114.253906 265.402344 114.335938 Z M 238.695312 103.042969 C 238.757812 102.976562 241.589844 104.875 245.148438 105.191406 C 248.6875 105.511719 251.753906 104.285156 251.769531 104.242188 C 251.769531 104.285156 248.902344 101.644531 245.128906 101.421875 C 241.464844 101.03125 238.6875 103.058594 238.695312 103.042969 Z M 253.078125 102.617188 C 253.054688 102.648438 253.742188 99.246094 251.730469 95.804688 C 249.6875 92.386719 245.882812 90.355469 245.851562 90.445312 C 245.84375 90.457031 245.996094 93.792969 247.945312 97.144531 C 249.988281 100.328125 253.039062 102.632812 253.078125 102.617188 Z M 232.027344 97.742188 C 235.144531 97.421875 237.597656 95.597656 237.597656 95.617188 C 237.613281 95.605469 234.539062 94.144531 231.332031 94.429688 C 228.054688 94.902344 226.042969 97.046875 226.042969 97.03125 C 226.027344 97.113281 228.960938 97.945312 232.027344 97.742188 Z M 238.488281 93.765625 C 238.496094 93.75 238.34375 90.863281 235.996094 88.253906 C 233.679688 85.515625 229.953125 84.78125 229.992188 84.714844 C 229.984375 84.722656 230.6875 87.632812 233.019531 90.03125 C 235.292969 92.605469 238.480469 93.75 238.488281 93.765625 Z M 238.488281 93.765625 " fill-opacity="1" fill-rule="nonzero"/></g><g clip-path="url(#fbe4cdd8e6)"><path fill="#583526" d="M 98.449219 193.992188 C 100.359375 198.269531 102.660156 202.390625 105.324219 206.273438 C 103.640625 204.214844 100.851562 201.148438 97.410156 198.578125 C 91.585938 194.328125 85.445312 192.820312 85.355469 192.871094 C 85.28125 192.8125 87.972656 200.953125 94.457031 205.308594 C 100.304688 209.375 106.183594 208.6875 106.984375 208.605469 C 109.488281 211.992188 112.277344 215.171875 115.304688 218.132812 C 113.054688 216.464844 109.914062 214.363281 106.398438 212.695312 C 99.421875 209.496094 92.511719 209.300781 92.511719 209.316406 C 92.363281 209.308594 97.164062 217.175781 104.84375 220.398438 C 111.425781 223.171875 117.085938 221.519531 118.476562 221.0625 C 126.375 227.980469 135.675781 233.34375 145.898438 236.460938 L 147.179688 232.910156 C 137.300781 230.132812 128.207031 225.109375 120.445312 218.535156 C 120.734375 216.761719 121.289062 211.609375 120.203125 206.40625 C 118.902344 200.019531 115.285156 195.308594 115.34375 195.195312 C 115.351562 195.1875 111.53125 200.445312 112.859375 207.453125 C 113.324219 210.054688 114.460938 212.320312 115.703125 214.160156 C 113.363281 211.8125 111.179688 209.316406 109.167969 206.691406 C 109.789062 205.179688 111.417969 200.507812 111.476562 195.421875 C 111.417969 189.320312 109.167969 184.175781 109.152344 184.113281 C 109.257812 184.070312 104.582031 188.28125 104.484375 194.949219 C 104.417969 197.710938 105.171875 200.273438 106.070312 202.332031 C 104.050781 199.28125 102.265625 196.078125 100.722656 192.765625 C 101.457031 191.71875 104.195312 187.613281 105.234375 182.761719 C 106.386719 177.152344 105.339844 171.917969 105.339844 171.871094 C 105.300781 171.878906 100.46875 174.847656 98.921875 180.964844 C 98.234375 183.925781 98.578125 186.867188 99.125 189.109375 C 97.597656 185.304688 96.394531 181.371094 95.550781 177.355469 C 95.945312 177.003906 99.738281 173.636719 101.832031 168.984375 C 104.125 164.042969 104.058594 159.003906 104.089844 158.957031 C 104.222656 158.964844 98.929688 160.820312 96.515625 166.09375 C 94.890625 169.390625 94.890625 172.980469 95.128906 175.214844 C 94.472656 171.535156 94.113281 167.78125 94.089844 164.003906 C 92.804688 132.753906 114.101562 102.175781 144.464844 91.96875 C 145.21875 92.007812 147.746094 92.042969 150.453125 91.3125 C 153.75 90.636719 156.257812 88.976562 156.269531 88.976562 C 156.277344 88.976562 153.355469 88.425781 149.921875 89.128906 C 147.066406 89.890625 144.972656 91.402344 144.402344 91.835938 C 113.855469 101.445312 91.503906 131.8125 92.09375 163.871094 C 91.929688 173.882812 94.039062 183.777344 97.972656 192.9375 C 97.074219 190.988281 94.945312 186.671875 91.617188 182.941406 C 87.269531 177.921875 81.699219 175.484375 81.738281 175.484375 C 81.675781 175.417969 82.582031 183.269531 87.570312 188.503906 C 92.5 193.65625 98.316406 193.984375 98.449219 193.992188 Z M 93.3125 177.863281 C 93.304688 177.863281 87.964844 176.417969 84.519531 170.75 C 81.109375 165.074219 81.730469 157.859375 81.789062 157.917969 C 81.917969 157.917969 86.171875 161.105469 89.363281 166.496094 C 92.3125 171.886719 93.269531 177.824219 93.3125 177.863281 Z M 105.441406 145.921875 C 105.53125 145.984375 104.449219 150.582031 101.539062 154.664062 C 98.4375 158.71875 94.1875 161.066406 94.097656 161.050781 C 94.089844 161.097656 93.890625 155.332031 97.238281 151.007812 C 100.613281 146.730469 105.488281 145.929688 105.441406 145.921875 Z M 91.878906 161.023438 C 91.96875 161.023438 87.300781 158.636719 85.386719 152.914062 C 83.316406 147.148438 85.378906 140.808594 85.296875 140.847656 C 85.347656 140.847656 88.878906 144.570312 90.539062 150 C 92.222656 155.429688 91.886719 160.984375 91.878906 161.023438 Z M 101.164062 136.382812 C 105.015625 133.144531 109.511719 133.292969 109.554688 133.308594 C 109.472656 133.308594 107.835938 137.40625 104.285156 140.488281 C 100.746094 143.589844 96.28125 144.773438 96.320312 144.78125 C 96.230469 144.808594 97.367188 139.648438 101.164062 136.382812 Z M 90 135.753906 C 89.378906 130.257812 92.191406 124.902344 92.25 124.976562 C 92.199219 124.949219 94.785156 128.949219 95.207031 134.136719 C 95.714844 139.34375 94.121094 144.226562 94.195312 144.277344 C 94.160156 144.269531 90.613281 141.25 90 135.753906 Z M 108.148438 122.867188 C 112.089844 120.617188 116.316406 121.6875 116.25 121.628906 C 116.210938 121.640625 113.863281 124.992188 110.109375 127.117188 C 106.332031 129.226562 102.191406 129.433594 102.144531 129.417969 C 102.167969 129.464844 104.015625 125 108.148438 122.867188 Z M 100.207031 128.46875 C 100.246094 128.492188 97.671875 125.058594 98.160156 120.078125 C 98.660156 115.078125 102.183594 110.925781 102.210938 110.972656 C 102.28125 111.023438 103.609375 114.867188 103.140625 119.660156 C 102.472656 124.3125 100.261719 128.46875 100.207031 128.46875 Z M 117.820312 111 C 121.894531 109.902344 125.238281 111.351562 125.238281 111.351562 C 125.273438 111.425781 122.484375 113.953125 118.761719 115.160156 C 114.992188 116.347656 111.214844 115.628906 111.253906 115.660156 C 111.15625 115.621094 113.921875 112.273438 117.820312 111 Z M 109.59375 114.335938 C 109.5625 114.304688 108.066406 110.851562 109.457031 106.582031 C 110.789062 102.25 114.722656 99.320312 114.648438 99.289062 C 114.648438 99.289062 115.359375 103.148438 113.871094 107.113281 C 112.5625 111.246094 109.539062 114.253906 109.59375 114.335938 Z M 136.304688 103.042969 C 136.238281 102.976562 133.410156 104.875 129.851562 105.191406 C 126.3125 105.511719 123.242188 104.285156 123.226562 104.242188 C 123.226562 104.285156 126.097656 101.644531 129.867188 101.421875 C 133.53125 101.03125 136.3125 103.058594 136.304688 103.042969 Z M 121.917969 102.617188 C 121.945312 102.648438 121.257812 99.246094 123.269531 95.804688 C 125.3125 92.386719 129.117188 90.355469 129.148438 90.445312 C 129.15625 90.457031 129 93.792969 127.054688 97.144531 C 125.011719 100.328125 121.960938 102.632812 121.917969 102.617188 Z M 142.96875 97.742188 C 139.855469 97.421875 137.402344 95.597656 137.402344 95.617188 C 137.382812 95.605469 140.460938 94.144531 143.664062 94.429688 C 146.945312 94.902344 148.957031 97.046875 148.957031 97.03125 C 148.972656 97.113281 146.035156 97.945312 142.96875 97.742188 Z M 136.507812 93.765625 C 136.5 93.75 136.65625 90.863281 139.003906 88.253906 C 141.316406 85.515625 145.046875 84.78125 145.007812 84.714844 C 145.015625 84.722656 144.3125 87.632812 141.980469 90.03125 C 139.707031 92.605469 136.515625 93.75 136.507812 93.765625 Z M 136.507812 93.765625 " fill-opacity="1" fill-rule="nonzero"/></g><path stroke-linecap="round" transform="matrix(0.831053, 0, 0, 0.831053, 73.3111, 244.80476)" fill="none" stroke-linejoin="miter" d="M 0.499923 0.498151 L 274.305561 0.498151 " stroke="#583526" stroke-width="1" stroke-opacity="1" stroke-miterlimit="4"/><path stroke-linecap="round" transform="matrix(0.831053, 0, 0, 0.831053, 73.3111, 289.800331)" fill="none" stroke-linejoin="miter" d="M 0.499923 0.49878 L 274.305561 0.49878 " stroke="#583526" stroke-width="1" stroke-opacity="1" stroke-miterlimit="4"/><g clip-path="url(#627627be04)"><path fill="#583526" d="M 241.769531 171.652344 L 224.699219 131.488281 L 226.011719 131.0625 C 232.121094 129.085938 235.769531 124.445312 235.769531 118.660156 C 235.769531 118.375 235.761719 118.113281 235.753906 117.851562 L 235.761719 117.613281 C 235.761719 117.34375 235.730469 117.058594 235.640625 116.695312 C 235.222656 115.019531 233.71875 113.847656 231.992188 113.847656 C 229.921875 113.847656 228.234375 115.535156 228.234375 117.613281 C 228.234375 119.550781 229.683594 121.164062 231.597656 121.359375 L 234.125 121.621094 L 232.390625 123.480469 C 230.140625 125.894531 226.976562 127.167969 223.246094 127.167969 C 222.582031 127.167969 221.894531 127.128906 221.199219 127.046875 C 216.109375 126.472656 212.410156 123.085938 208.484375 119.488281 C 206.070312 117.269531 203.566406 114.980469 200.777344 113.539062 C 198.117188 112.171875 195.582031 111.394531 193.027344 111.175781 L 191.753906 111.066406 L 191.933594 109.324219 C 191.933594 108.90625 191.777344 108.480469 191.492188 108.105469 L 190.617188 106.953125 L 191.875 106.242188 C 193.355469 105.40625 194.238281 104.097656 194.238281 102.738281 C 194.238281 100.292969 191.539062 98.304688 188.324219 98.296875 L 188.03125 98.3125 C 184.824219 98.394531 182.222656 100.375 182.222656 102.730469 C 182.222656 104.089844 183.105469 105.398438 184.585938 106.230469 L 185.855469 106.953125 L 184.976562 108.113281 C 184.683594 108.492188 184.535156 108.898438 184.535156 109.203125 L 184.714844 111.074219 L 183.449219 111.183594 C 180.894531 111.402344 178.367188 112.171875 175.699219 113.546875 C 172.902344 114.988281 170.398438 117.285156 167.96875 119.511719 C 164.058594 123.09375 160.367188 126.480469 155.277344 127.054688 C 154.582031 127.136719 153.894531 127.179688 153.242188 127.179688 C 149.511719 127.179688 146.34375 125.902344 144.09375 123.488281 L 142.359375 121.640625 L 144.878906 121.375 C 146.800781 121.171875 148.25 119.558594 148.25 117.628906 C 148.25 115.550781 146.566406 113.867188 144.488281 113.867188 C 142.742188 113.867188 141.238281 115.058594 140.828125 116.761719 C 140.753906 117.082031 140.722656 117.359375 140.714844 117.621094 L 140.730469 117.777344 L 140.722656 117.867188 C 140.707031 118.121094 140.707031 118.390625 140.707031 118.675781 C 140.699219 124.566406 144.453125 129.238281 150.746094 131.164062 L 152.085938 131.570312 L 135.0625 171.652344 L 134.070312 171.652344 L 134.070312 171.671875 C 134.628906 178.25 142.914062 183.402344 152.929688 183.402344 C 162.953125 183.402344 171.242188 178.25 171.789062 171.679688 L 171.789062 171.664062 L 170.800781 171.664062 L 153.929688 131.949219 L 155.917969 132.019531 C 156.195312 132.03125 156.480469 132.039062 156.765625 132.039062 C 158.894531 132.039062 160.996094 131.710938 162.847656 131.082031 C 166.085938 129.992188 169.082031 128.09375 171.984375 126.261719 C 175.878906 123.808594 179.554688 121.492188 183.800781 120.835938 L 186.015625 120.5 L 185.160156 122.570312 C 184.9375 123.09375 184.699219 123.578125 184.445312 123.988281 C 182.171875 127.652344 180.820312 133.738281 180.820312 140.277344 C 180.820312 146.804688 182.179688 152.902344 184.445312 156.566406 C 185.453125 158.195312 186.179688 160.738281 186.179688 162.621094 L 186.179688 195.25 L 185.140625 195.4375 C 184.578125 195.546875 182.71875 195.9375 182.71875 196.691406 C 182.71875 196.796875 182.71875 197.117188 183.554688 197.484375 L 183.9375 197.65625 L 184.144531 198.023438 C 184.519531 198.710938 184.945312 199.9375 184.796875 201.902344 C 184.707031 203.113281 183.980469 204.445312 183.1875 205.902344 C 182.238281 207.628906 181.164062 209.578125 181.109375 211.597656 L 181.074219 212.726562 L 179.953125 212.824219 C 165.957031 214.027344 155.523438 218.070312 153.984375 222.871094 L 153.976562 222.890625 L 223.464844 222.890625 L 223.457031 222.871094 C 221.878906 217.90625 211.0625 213.839844 196.546875 212.742188 L 195.425781 212.660156 L 195.386719 211.539062 C 195.304688 209.542969 194.238281 207.613281 193.308594 205.910156 C 192.523438 204.480469 191.777344 203.128906 191.695312 201.910156 C 191.539062 199.683594 192.070312 198.402344 192.546875 197.722656 L 192.710938 197.492188 L 192.957031 197.351562 C 193.324219 197.140625 193.503906 196.929688 193.503906 196.707031 C 193.503906 196.003906 191.84375 195.609375 191.328125 195.503906 L 190.320312 195.300781 L 190.320312 162.621094 C 190.320312 160.722656 191.050781 158.179688 192.054688 156.566406 C 194.332031 152.902344 195.6875 146.8125 195.6875 140.277344 C 195.6875 133.738281 194.332031 127.652344 192.054688 123.980469 C 191.800781 123.570312 191.566406 123.101562 191.34375 122.570312 L 190.46875 120.492188 L 192.695312 120.835938 C 196.949219 121.492188 200.621094 123.808594 204.523438 126.269531 C 207.429688 128.101562 210.433594 129.992188 213.65625 131.082031 C 215.503906 131.710938 217.597656 132.039062 219.726562 132.039062 C 220.128906 132.039062 220.519531 132.03125 220.921875 132.003906 L 222.933594 131.90625 L 206.03125 171.652344 L 205.039062 171.652344 L 205.039062 171.671875 C 205.597656 178.25 213.875 183.402344 223.898438 183.402344 C 233.921875 183.402344 242.203125 178.25 242.757812 171.671875 L 242.757812 171.652344 Z M 167.953125 171.652344 L 137.90625 171.652344 L 152.921875 135.515625 Z M 208.878906 171.652344 L 223.898438 135.515625 L 238.914062 171.652344 Z M 208.878906 171.652344 " fill-opacity="1" fill-rule="nonzero"/></g><g fill="#583526" fill-opacity="1"><g transform="translate(126.482551, 273.119932)"><g><path d="M 1.15625 -0.203125 C 1.519531 -0.203125 1.832031 -0.332031 2.09375 -0.59375 C 2.351562 -0.851562 2.488281 -1.164062 2.5 -1.53125 L 2.5 -13.203125 C 2.488281 -13.566406 2.351562 -13.875 2.09375 -14.125 C 1.832031 -14.382812 1.519531 -14.515625 1.15625 -14.515625 L 0.890625 -14.515625 L 0.890625 -14.734375 L 7.28125 -14.734375 L 7.265625 -14.515625 L 7.015625 -14.515625 C 6.648438 -14.515625 6.332031 -14.382812 6.0625 -14.125 C 5.789062 -13.875 5.65625 -13.566406 5.65625 -13.203125 L 5.65625 -0.90625 L 8.421875 -0.90625 C 9.441406 -0.90625 10.296875 -1.195312 10.984375 -1.78125 C 11.679688 -2.375 12.203125 -3.210938 12.546875 -4.296875 L 12.75 -4.296875 L 11.78125 0 L 0.890625 0 L 0.890625 -0.203125 Z M 1.15625 -0.203125 "/></g></g></g><g fill="#583526" fill-opacity="1"><g transform="translate(139.448751, 273.119932)"><g><path d="M 1.15625 -0.203125 C 1.519531 -0.203125 1.832031 -0.332031 2.09375 -0.59375 C 2.351562 -0.851562 2.488281 -1.164062 2.5 -1.53125 L 2.5 -13.21875 C 2.488281 -13.582031 2.351562 -13.890625 2.09375 -14.140625 C 1.832031 -14.390625 1.519531 -14.515625 1.15625 -14.515625 L 0.890625 -14.515625 L 0.890625 -14.734375 L 7.28125 -14.734375 L 7.265625 -14.515625 L 7.015625 -14.515625 C 6.648438 -14.515625 6.332031 -14.390625 6.0625 -14.140625 C 5.789062 -13.890625 5.65625 -13.582031 5.65625 -13.21875 L 5.65625 -1.53125 C 5.65625 -1.164062 5.789062 -0.851562 6.0625 -0.59375 C 6.332031 -0.332031 6.648438 -0.203125 7.015625 -0.203125 L 7.265625 -0.203125 L 7.28125 0 L 0.890625 0 L 0.890625 -0.203125 Z M 1.15625 -0.203125 "/></g></g></g><g fill="#583526" fill-opacity="1"><g transform="translate(147.57368, 273.119932)"><g><path d="M 8.609375 -13.875 L 8.609375 -1.515625 C 8.617188 -1.148438 8.753906 -0.835938 9.015625 -0.578125 C 9.273438 -0.328125 9.585938 -0.203125 9.953125 -0.203125 L 10.203125 -0.203125 L 10.234375 0 L 3.828125 0 L 3.828125 -0.203125 L 4.109375 -0.203125 C 4.453125 -0.203125 4.753906 -0.328125 5.015625 -0.578125 C 5.273438 -0.835938 5.421875 -1.144531 5.453125 -1.5 L 5.453125 -13.875 L 2.609375 -13.875 C 1.960938 -13.851562 1.445312 -13.644531 1.0625 -13.25 C 0.6875 -12.863281 0.5 -12.351562 0.5 -11.71875 L 0.5 -11.46875 L 0.296875 -11.46875 L 0.296875 -15.125 C 0.867188 -14.894531 1.695312 -14.769531 2.78125 -14.75 L 11.265625 -14.75 C 11.691406 -14.75 12.160156 -14.789062 12.671875 -14.875 C 13.191406 -14.957031 13.550781 -15.039062 13.75 -15.125 L 13.75 -11.46875 L 13.53125 -11.46875 L 13.53125 -11.71875 C 13.53125 -12.59375 13.203125 -13.210938 12.546875 -13.578125 C 12.234375 -13.753906 11.859375 -13.851562 11.421875 -13.875 Z M 8.609375 -13.875 "/></g></g></g><g fill="#583526" fill-opacity="1"><g transform="translate(161.592341, 273.119932)"><g><path d="M 1.15625 -0.203125 C 1.519531 -0.203125 1.832031 -0.332031 2.09375 -0.59375 C 2.351562 -0.851562 2.488281 -1.164062 2.5 -1.53125 L 2.5 -13.21875 C 2.488281 -13.582031 2.351562 -13.890625 2.09375 -14.140625 C 1.832031 -14.390625 1.519531 -14.515625 1.15625 -14.515625 L 0.890625 -14.515625 L 0.890625 -14.734375 L 7.28125 -14.734375 L 7.265625 -14.515625 L 7.015625 -14.515625 C 6.648438 -14.515625 6.332031 -14.390625 6.0625 -14.140625 C 5.789062 -13.890625 5.65625 -13.582031 5.65625 -13.21875 L 5.65625 -1.53125 C 5.65625 -1.164062 5.789062 -0.851562 6.0625 -0.59375 C 6.332031 -0.332031 6.648438 -0.203125 7.015625 -0.203125 L 7.265625 -0.203125 L 7.28125 0 L 0.890625 0 L 0.890625 -0.203125 Z M 1.15625 -0.203125 "/></g></g></g><g fill="#583526" fill-opacity="1"><g transform="translate(169.717269, 273.119932)"><g><path d="M 8.90625 0.296875 C 6.5 0.296875 4.570312 -0.394531 3.125 -1.78125 C 1.675781 -3.164062 0.953125 -5.03125 0.953125 -7.375 C 0.953125 -9.726562 1.675781 -11.59375 3.125 -12.96875 C 4.570312 -14.34375 6.539062 -15.03125 9.03125 -15.03125 C 10.15625 -15.03125 11.242188 -14.921875 12.296875 -14.703125 C 13.347656 -14.484375 14.195312 -14.210938 14.84375 -13.890625 L 14.875 -10.265625 L 14.6875 -10.265625 C 14.320312 -11.628906 13.695312 -12.613281 12.8125 -13.21875 C 11.925781 -13.832031 10.875 -14.140625 9.65625 -14.140625 C 7.957031 -14.140625 6.648438 -13.53125 5.734375 -12.3125 C 4.828125 -11.101562 4.375 -9.441406 4.375 -7.328125 C 4.375 -5.222656 4.789062 -3.570312 5.625 -2.375 C 6.457031 -1.1875 7.640625 -0.59375 9.171875 -0.59375 C 10.285156 -0.59375 11.210938 -0.90625 11.953125 -1.53125 C 12.316406 -1.851562 12.582031 -2.234375 12.75 -2.671875 L 12.75 -5.890625 C 12.75 -6.203125 12.65625 -6.4375 12.46875 -6.59375 C 12.28125 -6.757812 12.007812 -6.84375 11.65625 -6.84375 L 11.328125 -6.84375 L 11.328125 -7.046875 L 17.234375 -7.046875 L 17.234375 -6.84375 L 16.921875 -6.84375 C 16.585938 -6.84375 16.328125 -6.757812 16.140625 -6.59375 C 15.960938 -6.4375 15.875 -6.203125 15.875 -5.890625 L 15.875 -2.421875 C 15.320312 -1.703125 14.414062 -1.066406 13.15625 -0.515625 C 11.894531 0.0234375 10.476562 0.296875 8.90625 0.296875 Z M 8.90625 0.296875 "/></g></g></g><g fill="#583526" fill-opacity="1"><g transform="translate(187.314264, 273.119932)"><g><path d="M 1.15625 -0.203125 C 1.519531 -0.203125 1.832031 -0.332031 2.09375 -0.59375 C 2.351562 -0.851562 2.488281 -1.164062 2.5 -1.53125 L 2.5 -13.265625 C 2.476562 -13.628906 2.375 -13.894531 2.1875 -14.0625 C 1.851562 -14.363281 1.507812 -14.515625 1.15625 -14.515625 L 0.890625 -14.515625 L 0.890625 -14.734375 L 8.9375 -14.734375 C 9.625 -14.734375 10.191406 -14.785156 10.640625 -14.890625 C 11.097656 -14.992188 11.375 -15.066406 11.46875 -15.109375 L 11.46875 -11.421875 L 11.265625 -11.453125 L 11.265625 -11.6875 C 11.265625 -12.550781 10.941406 -13.164062 10.296875 -13.53125 C 9.984375 -13.71875 9.617188 -13.816406 9.203125 -13.828125 L 5.65625 -13.828125 L 5.65625 -7.703125 L 8.4375 -7.703125 C 8.957031 -7.710938 9.382812 -7.890625 9.71875 -8.234375 C 10.0625 -8.578125 10.234375 -9.003906 10.234375 -9.515625 L 10.234375 -9.703125 L 10.4375 -9.703125 L 10.4375 -4.84375 L 10.234375 -4.84375 L 10.234375 -5.015625 C 10.234375 -5.523438 10.066406 -5.945312 9.734375 -6.28125 C 9.398438 -6.625 8.984375 -6.800781 8.484375 -6.8125 L 5.65625 -6.8125 L 5.65625 -0.90625 L 8.421875 -0.90625 C 9.441406 -0.90625 10.296875 -1.195312 10.984375 -1.78125 C 11.679688 -2.375 12.203125 -3.210938 12.546875 -4.296875 L 12.75 -4.296875 L 11.78125 0 L 0.890625 0 L 0.890625 -0.203125 Z M 1.15625 -0.203125 "/></g></g></g><g fill="#583526" fill-opacity="1"><g transform="translate(200.596205, 273.119932)"><g><path d="M 17.1875 -14.515625 C 16.695312 -14.515625 16.328125 -14.304688 16.078125 -13.890625 C 15.960938 -13.710938 15.898438 -13.503906 15.890625 -13.265625 L 15.890625 -2.40625 C 15.890625 -1.457031 15.953125 -0.660156 16.078125 -0.015625 L 16.140625 0.296875 L 15.953125 0.296875 L 5.328125 -9.828125 L 5.328125 -1.46875 C 5.328125 -1.125 5.453125 -0.828125 5.703125 -0.578125 C 5.953125 -0.328125 6.253906 -0.203125 6.609375 -0.203125 L 7.015625 -0.203125 L 7.015625 0 L 0.625 0 L 0.625 -0.203125 L 1.015625 -0.203125 C 1.378906 -0.203125 1.6875 -0.328125 1.9375 -0.578125 C 2.1875 -0.828125 2.3125 -1.132812 2.3125 -1.5 L 2.3125 -12.421875 C 2.3125 -13.347656 2.25 -14.117188 2.125 -14.734375 L 2.078125 -15.046875 L 2.265625 -15.046875 L 12.90625 -4.921875 L 12.90625 -13.234375 C 12.882812 -13.597656 12.75 -13.898438 12.5 -14.140625 C 12.25 -14.390625 11.945312 -14.515625 11.59375 -14.515625 L 11.21875 -14.515625 L 11.21875 -14.734375 L 17.59375 -14.734375 L 17.59375 -14.515625 Z M 17.1875 -14.515625 "/></g></g></g><g fill="#583526" fill-opacity="1"><g transform="translate(218.803618, 273.119932)"><g><path d="M 9.640625 0.28125 C 6.929688 0.28125 4.804688 -0.398438 3.265625 -1.765625 C 1.722656 -3.128906 0.953125 -4.992188 0.953125 -7.359375 C 0.953125 -9.734375 1.710938 -11.601562 3.234375 -12.96875 C 4.765625 -14.34375 6.863281 -15.03125 9.53125 -15.03125 C 11.570312 -15.03125 13.320312 -14.648438 14.78125 -13.890625 L 14.8125 -10.265625 L 14.65625 -10.265625 C 13.9375 -12.847656 12.300781 -14.140625 9.75 -14.140625 C 8.09375 -14.140625 6.78125 -13.539062 5.8125 -12.34375 C 4.851562 -11.144531 4.375 -9.503906 4.375 -7.421875 C 4.375 -5.347656 4.832031 -3.703125 5.75 -2.484375 C 6.675781 -1.265625 7.921875 -0.632812 9.484375 -0.59375 C 11.117188 -0.59375 12.363281 -1 13.21875 -1.8125 C 14.082031 -2.65625 14.6875 -4.097656 15.03125 -6.140625 L 15.203125 -6.140625 L 15.40625 -2.53125 C 14.269531 -0.644531 12.347656 0.289062 9.640625 0.28125 Z M 9.640625 0.28125 "/></g></g></g><g fill="#583526" fill-opacity="1"><g transform="translate(235.221864, 273.119932)"><g><path d="M 1.15625 -0.203125 C 1.519531 -0.203125 1.832031 -0.332031 2.09375 -0.59375 C 2.351562 -0.851562 2.488281 -1.164062 2.5 -1.53125 L 2.5 -13.265625 C 2.476562 -13.628906 2.375 -13.894531 2.1875 -14.0625 C 1.851562 -14.363281 1.507812 -14.515625 1.15625 -14.515625 L 0.890625 -14.515625 L 0.890625 -14.734375 L 8.9375 -14.734375 C 9.625 -14.734375 10.191406 -14.785156 10.640625 -14.890625 C 11.097656 -14.992188 11.375 -15.066406 11.46875 -15.109375 L 11.46875 -11.421875 L 11.265625 -11.453125 L 11.265625 -11.6875 C 11.265625 -12.550781 10.941406 -13.164062 10.296875 -13.53125 C 9.984375 -13.71875 9.617188 -13.816406 9.203125 -13.828125 L 5.65625 -13.828125 L 5.65625 -7.703125 L 8.4375 -7.703125 C 8.957031 -7.710938 9.382812 -7.890625 9.71875 -8.234375 C 10.0625 -8.578125 10.234375 -9.003906 10.234375 -9.515625 L 10.234375 -9.703125 L 10.4375 -9.703125 L 10.4375 -4.84375 L 10.234375 -4.84375 L 10.234375 -5.015625 C 10.234375 -5.523438 10.066406 -5.945312 9.734375 -6.28125 C 9.398438 -6.625 8.984375 -6.800781 8.484375 -6.8125 L 5.65625 -6.8125 L 5.65625 -0.90625 L 8.421875 -0.90625 C 9.441406 -0.90625 10.296875 -1.195312 10.984375 -1.78125 C 11.679688 -2.375 12.203125 -3.210938 12.546875 -4.296875 L 12.75 -4.296875 L 11.78125 0 L 0.890625 0 L 0.890625 -0.203125 Z M 1.15625 -0.203125 "/></g></g></g></svg>